Coordinates
version=1
nRows=10
nColumns=40
inDegrees=yes

Units are S.I. units (second, meters, Newtons, ...)
Angles are in degrees.

endheader
time	pelvis_tilt	pelvis_list	pelvis_rotation	pelvis_tx	pelvis_ty	pelvis_tz	hip_flexion_r	hip_adduction_r	hip_rotation_r	knee_angle_r	knee_angle_r_beta	ankle_angle_r	subtalar_angle_r	mtp_angle_r	hip_flexion_l	hip_adduction_l	hip_rotation_l	knee_angle_l	knee_angle_l_beta	ankle_angle_l	subtalar_angle_l	mtp_angle_l	lumbar_extension	lumbar_bending	lumbar_rotation	arm_flex_r	arm_add_r	arm_rot_r	elbow_flex_r	pro_sup_r	wrist_flex_r	wrist_dev_r	arm_flex_l	arm_add_l	arm_rot_l	elbow_flex_l	pro_sup_l	wrist_flex_l	wrist_dev_l
     19.30628571	     -3.14498887	     -5.22829372	     -5.91197604	      0.93961836	      0.92074035	      0.40289091	     26.14310512	     -6.08837850	      2.32690329	     60.08938712	     60.08938712	      3.65568062	     -8.36547854	     -2.66154888	     17.08922392	     -5.35992740	     -5.48392288	     31.02511841	     31.02511841	     18.77695464	    -15.70029986	      4.52899407	    -10.34914486	      7.41167117	      1.01119222	     -6.07385430	    -12.44011284	     -6.81004174	     20.38861256	     46.99031522	      0.00000000	      0.00000000	     27.41083429	    -15.99013204	      0.76484090	     50.02322612	     47.23876925	      0.00000000	      0.00000000
     19.32757143	     -3.48174503	     -5.37409781	     -6.68121539	      0.93915613	      0.92280201	      0.40365320	     27.13415260	     -5.56735834	      2.38268650	     57.90733350	     57.90733350	      4.29859779	     -8.10204712	     -2.86700586	     16.36973958	     -5.63886221	     -6.19753707	     29.78904683	     29.78904683	     18.63928146	    -15.48244828	      4.74724978	    -10.18386969	      7.47405856	      0.87686029	     -8.62754891	    -12.74565671	     -6.98377838	     19.73881634	     47.01014206	      0.00000000	      0.00000000	     28.50404442	    -16.90042523	      0.12221476	     51.17767278	     47.31666723	      0.00000000	      0.00000000
     19.34885714	     -3.73037062	     -5.46936099	     -7.51510164	      0.93873569	      0.92530944	      0.40487110	     27.57881667	     -5.10377544	      2.35298601	     54.46459184	     54.46459184	      3.99035613	     -8.15962188	     -6.35875940	     15.34121499	     -5.89869994	     -7.18251355	     28.16767189	     28.16767189	     17.95676346	    -15.21564117	      3.80012638	    -10.33846276	      7.45518784	      0.94401220	    -12.04147578	    -13.03186796	     -8.21963127	     22.55755823	     46.95215426	      0.00000000	      0.00000000	     28.50198886	    -17.40587260	     -2.88648740	     55.89956130	     47.58791358	      0.00000000	      0.00000000
     19.37014286	     -4.16345969	     -5.62935921	     -8.30809495	      0.93814555	      0.92778108	      0.40652954	     27.95461528	     -4.59819503	      2.04199039	     50.34719088	     50.34719088	      4.69873926	     -7.22190741	     -6.65701587	     14.52117425	     -6.21998739	     -7.99770529	     26.55490037	     26.55490037	     17.65995790	    -14.83237854	      4.11411362	    -10.09655590	      7.51579443	      1.01821075	    -14.06268652	    -13.23878035	     -8.31700568	     22.18867336	     46.95389360	      0.00000000	      0.00000000	     29.71403584	    -18.18751443	     -3.45823069	     57.04739991	     47.65294261	      0.00000000	      0.00000000
     19.39142857	     -4.58479496	     -5.73769657	     -9.10788289	      0.93748310	      0.93002133	      0.40861338	     27.89831918	     -4.16067005	      1.55788323	     45.21686612	     45.21686612	      4.23617636	     -6.25956850	     -9.85716568	     13.64379696	     -6.49905112	     -8.90002091	     24.83224702	     24.83224702	     16.94143262	    -14.54793638	      3.41962194	    -10.03963219	      7.47343289	      1.15883177	    -16.82956545	    -13.39465947	     -8.81265828	     24.95171230	     46.81394025	      0.00000000	      0.00000000	     30.23729582	    -18.78707895	     -5.59006629	     60.71835132	     47.83737878	      0.00000000	      0.00000000
     19.41271429	     -5.03518245	     -5.81431573	     -9.83822115	      0.93681614	      0.93204365	      0.41099982	     27.60098392	     -3.76950074	      0.81778829	     39.65973182	     39.65973182	      4.42986945	     -4.02944073	     -9.95083110	     12.83153412	     -6.74547345	     -9.75447472	     23.17692299	     23.17692299	     16.53466367	    -14.04776299	      3.48170026	     -9.83126452	      7.38583138	      1.45038597	    -18.58192733	    -13.38456090	     -8.70913138	     25.43502329	     46.75178547	      0.00000000	      0.00000000	     31.57665638	    -19.38511798	     -6.33643636	     62.45085511	     47.91226249	      0.00000000	      0.00000000
     19.43400000	     -5.54079271	     -5.99350977	    -10.45728599	      0.93616862	      0.93359044	      0.41376954	     26.96780363	     -3.12575851	      0.05676710	     33.60965930	     33.60965930	      4.29628839	     -1.69258517	     -8.98880904	     12.23306277	     -7.13289298	    -10.44273278	     21.82367941	     21.82367941	     16.24910781	    -13.60855202	      3.63903507	     -9.52783521	      7.44421483	      1.60037568	    -19.78123348	    -13.29193757	     -8.68007624	     25.63240006	     46.72298922	      0.00000000	      0.00000000	     32.96479576	    -20.11965640	     -6.84211916	     63.75402193	     47.97393193	      0.00000000	      0.00000000
     19.45528571	     -5.83417320	     -5.95171243	    -11.01005946	      0.93579292	      0.93464132	      0.41661335	     26.07510378	     -2.88583359	     -1.25336096	     27.78901687	     27.78901687	      4.45442732	      2.48808713	     -6.32424708	     11.40434228	     -7.24138068	    -11.26328966	     20.40555765	     20.40555765	     15.60773819	    -13.19199618	      2.65080224	     -9.54449000	      7.21551809	      1.68699713	    -21.70511457	    -13.25785297	     -8.16491303	     28.89251931	     46.48475871	      0.00000000	      0.00000000	     33.75082134	    -20.68218570	     -8.50712005	     67.22531607	     48.12533457	      0.00000000	      0.00000000
     19.47657143	     -6.14422249	     -5.85373159	    -11.42423347	      0.93559048	      0.93506655	      0.41972829	     25.19982560	     -2.56809457	     -2.47509028	     22.45814031	     22.45814031	      4.75510914	      6.50334205	     -1.42408379	     10.71243631	     -7.29577142	    -11.90592367	     19.17257702	     19.17257702	     15.08282007	    -12.80151548	      1.67856808	     -9.37678808	      6.92776523	      1.87140901	    -22.93771610	    -13.22974311	     -6.36758614	     30.51299224	     46.23826079	      0.00000000	      0.00000000	     35.13680637	    -21.14226884	     -9.17273452	     69.14024394	     48.16940317	      0.00000000	      0.00000000
     19.49785714	     -6.38267135	     -5.71628825	    -11.70296497	      0.93572096	      0.93497922	      0.42310076	     24.14896893	     -2.15714947	     -3.40920854	     17.41371481	     17.41371481	      3.70499167	      9.61098660	      0.71678873	     10.10972010	     -7.32317540	    -12.45813630	     18.28511961	     18.28511961	     15.06189882	    -12.27903455	      1.47666830	     -9.18907844	      6.62316395	      2.13032151	    -23.45302752	    -12.82050914	     -6.09491052	     30.64118873	     46.20514245	      0.00000000	      0.00000000	     36.70216574	    -21.51164415	     -9.40490747	     70.45062481	     48.21504798	      0.00000000	      0.00000000
